0
SECTION
2
HEADER
9
$INSUNITS
70
4
9
$ACADVER
1
AC1014
9
$HANDSEED
5
FFFF
0
ENDSEC
0
SECTION
2
TABLES
0
TABLE
2
VPORT
5
8
100
AcDbSymbolTable
0
ENDTAB
0
TABLE
2
LTYPE
5
5
100
AcDbSymbolTable
0
LTYPE
5
14
100
AcDbSymbolTableRecord
100
AcDbLinetypeTableRecord
2
BYBLOCK
70
0
0
LTYPE
5
15
100
AcDbSymbolTableRecord
100
AcDbLinetypeTableRecord
2
BYLAYER
70
0
0
ENDTAB
0
TABLE
2
LAYER
5
2
100
AcDbSymbolTable
70
2
0
LAYER
5
50
100
AcDbSymbolTableRecord
100
AcDbLayerTableRecord
2
0
70
0
6
CONTINUOUS
0
ENDTAB
0
TABLE
2
STYLE
5
3
100
AcDbSymbolTable
70
1
0
STYLE
5
11
100
AcDbSymbolTableRecord
100
AcDbTextStyleTableRecord
2
STANDARD
70
0
0
ENDTAB
0
TABLE
2
VIEW
5
6
100
AcDbSymbolTable
70
0
0
ENDTAB
0
TABLE
2
UCS
5
7
100
AcDbSymbolTable
70
0
0
ENDTAB
0
TABLE
2
APPID
5
9
100
AcDbSymbolTable
70
2
0
APPID
5
12
100
AcDbSymbolTableRecord
100
AcDbRegAppTableRecord
2
ACAD
70
0
0
ENDTAB
0
TABLE
2
DIMSTYLE
5
A
100
AcDbSymbolTable
70
1
0
ENDTAB
0
TABLE
2
BLOCK_RECORD
5
1
100
AcDbSymbolTable
70
1
0
BLOCK_RECORD
5
1F
100
AcDbSymbolTableRecord
100
AcDbBlockTableRecord
2
*MODEL_SPACE
0
BLOCK_RECORD
5
1B
100
AcDbSymbolTableRecord
100
AcDbBlockTableRecord
2
*PAPER_SPACE
0
ENDTAB
0
ENDSEC
0
SECTION
2
BLOCKS
0
BLOCK
5
20
100
AcDbEntity
100
AcDbBlockBegin
2
*MODEL_SPACE
0
ENDBLK
5
21
100
AcDbEntity
100
AcDbBlockEnd
0
BLOCK
5
1C
100
AcDbEntity
100
AcDbBlockBegin
2
*PAPER_SPACE
0
ENDBLK
5
1D
100
AcDbEntity
100
AcDbBlockEnd
0
ENDSEC
0
SECTION
2
ENTITIES
0
LWPOLYLINE
5
100
100
AcDbEntity
8
0
100
AcDbPolyline
90
8
70
1
43
0.0
10
1185.0000000000141
20
22.49999999999801
10
1190.2500000000057
20
22.49999999999801
42
0.99999999999999989
10
1194.7500000000057
20
22.49999999999801
10
1200.0000000000139
20
22.49999999999801
10
1200.0000000000134
20
102.49999999999616
10
1194.7500000000102
20
102.49999999999616
42
0.99999999999999989
10
1190.2500000000073
20
102.49999999999076
10
1185.0000000000134
20
102.49999999999616
0
LWPOLYLINE
5
101
100
AcDbEntity
8
0
100
AcDbPolyline
90
8
70
1
43
0.0
10
1200.0000000000134
20
252.49999999999616
10
1194.7500000000134
20
252.49999999999616
42
0.99999999999999989
10
1190.2500000000073
20
252.49999999999076
10
1185.0000000000134
20
252.49999999999616
10
1185.0000000000141
20
172.49999999999801
10
1190.2500000000059
20
172.49999999999972
42
0.99999999999999989
10
1194.7500000000057
20
172.49999999999972
10
1200.0000000000139
20
172.49999999999801
0
LWPOLYLINE
5
102
100
AcDbEntity
8
0
100
AcDbPolyline
90
8
70
1
43
0.0
10
-1.3926637620897964e-11
20
22.49999999999801
10
5.2499999999859881
20
22.49999999999801
42
0.99999999999999989
10
9.7499999999941167
20
22.49999999999801
10
14.999999999985931
20
22.49999999999801
10
14.9999999999865
20
102.49999999999616
10
9.7499999999896119
20
102.49999999999346
42
0.99999999999999989
10
5.2499999999896403
20
102.49999999999346
10
-1.3358203432289883e-11
20
102.49999999999616
0
LWPOLYLINE
5
103
100
AcDbEntity
8
0
100
AcDbPolyline
90
8
70
1
43
0.0
10
-1.3926637620897964e-11
20
172.49999999999801
10
5.2499999999941878
20
172.49999999999972
42
0.99999999999999989
10
9.7499999999941593
20
172.49999999999972
10
14.999999999985931
20
172.49999999999801
10
14.9999999999865
20
252.49999999999616
10
9.7499999999896119
20
252.49999999999346
42
0.99999999999999989
10
5.2499999999896403
20
252.49999999999346
10
-1.3358203432289883e-11
20
252.49999999999616
0
LWPOLYLINE
5
104
100
AcDbEntity
8
0
100
AcDbPolyline
90
12
70
1
43
0.0
10
64.216878364870325
20
12.500000000000442
42
-0.26794919243112214
10
42.566243270259356
20
4.2632564145606011e-13
10
-23
20
4.2632564145606011e-13
10
-22.999999999999972
20
400.00000000000028
10
1223
20
400.00000000000028
10
1223.0000000000059
20
4.4764192352886292e-13
10
1157.4337567297466
20
-9.3702823278363212e-13
42
-0.26794919243112142
10
1135.7831216351351
20
12.499999999998721
10
1041.963702891816
20
175.00000000000085
42
0.26794919243111837
10
998.66243270259451
20
200.00000000000014
10
201.33756729740625
20
200.00000000000014
42
0.26794919243112275
10
158.0362971081843
20
175.00000000000014
0
CIRCLE
5
105
100
AcDbEntity
8
0
100
AcDbCircle
10
7.4999999999863576
20
220.49999999999699
30
0
40
2.2499999999999987
210
0
220
-0
230
1
0
CIRCLE
5
106
100
AcDbEntity
8
0
100
AcDbCircle
10
7.4999999999862155
20
204.49999999999733
30
0
40
2.2499999999999987
210
0
220
-0
230
1
0
LWPOLYLINE
5
107
100
AcDbEntity
8
0
100
AcDbPolyline
90
8
70
1
43
0.0
10
5.2499999999941878
20
172.49999999999972
10
-1.3926637620897964e-11
20
172.49999999999801
10
-1.3358203432289883e-11
20
252.49999999999616
10
5.2499999999896403
20
252.49999999999346
42
0.99999999999999989
10
9.7499999999896119
20
252.49999999999346
10
14.9999999999865
20
252.49999999999616
10
14.999999999985931
20
172.49999999999801
10
9.7499999999941593
20
172.49999999999972
42
0.99999999999999989
0
CIRCLE
5
108
100
AcDbEntity
8
0
100
AcDbCircle
10
7.499999999997442
20
70.499999999997698
30
0
40
2.2499999999999849
210
0
220
-0
230
1
0
CIRCLE
5
109
100
AcDbEntity
8
0
100
AcDbCircle
10
7.4999999999862155
20
54.499999999997328
30
0
40
2.2499999999999987
210
0
220
-0
230
1
0
LWPOLYLINE
5
110
100
AcDbEntity
8
0
100
AcDbPolyline
90
8
70
1
43
0.0
10
-1.3926637620897964e-11
20
22.49999999999801
10
-1.3358203432289883e-11
20
102.49999999999616
10
5.2499999999896403
20
102.49999999999346
42
0.99999999999999989
10
9.7499999999896119
20
102.49999999999346
10
14.9999999999865
20
102.49999999999616
10
14.999999999985931
20
22.49999999999801
10
9.7499999999941167
20
22.49999999999801
42
0.99999999999999989
10
5.2499999999859881
20
22.49999999999801
0
CIRCLE
5
111
100
AcDbEntity
8
0
100
AcDbCircle
10
1192.500000000003
20
204.49999999999804
30
0
40
2.2499999999999432
210
0
220
-0
230
1
0
CIRCLE
5
112
100
AcDbEntity
8
0
100
AcDbCircle
10
1192.5000000000025
20
220.4999999999977
30
0
40
2.2499999999999432
210
0
220
-0
230
1
0
LWPOLYLINE
5
113
100
AcDbEntity
8
0
100
AcDbPolyline
90
8
70
1
43
0.0
10
1194.7500000000134
20
252.49999999999616
10
1200.0000000000134
20
252.49999999999616
10
1200.0000000000139
20
172.49999999999801
10
1194.7500000000057
20
172.49999999999972
42
0.99999999999999989
10
1190.2500000000059
20
172.49999999999972
10
1185.0000000000141
20
172.49999999999801
10
1185.0000000000134
20
252.49999999999616
10
1190.2500000000136
20
252.49999999999616
42
0.99999999999999989
0
CIRCLE
5
114
100
AcDbEntity
8
0
100
AcDbCircle
10
1192.5000000000139
20
54.499999999997328
30
0
40
2.2499999999999964
210
0
220
0
230
1
0
CIRCLE
5
115
100
AcDbEntity
8
0
100
AcDbCircle
10
1192.5000000000136
20
70.499999999996987
30
0
40
2.2499999999999964
210
0
220
0
230
1
0
LWPOLYLINE
5
116
100
AcDbEntity
8
0
100
AcDbPolyline
90
8
70
1
43
0.0
10
1185.0000000000141
20
22.49999999999801
10
1185.0000000000134
20
102.49999999999616
10
1190.2500000000105
20
102.49999999999616
42
0.99999999999999989
10
1194.7500000000134
20
102.49999999999616
10
1200.0000000000134
20
102.49999999999616
10
1200.0000000000139
20
22.49999999999801
10
1194.7500000000057
20
22.49999999999801
42
0.99999999999999989
10
1190.2500000000057
20
22.49999999999801
0
ENDSEC
0
SECTION
2
OBJECTS
0
DICTIONARY
5
C
100
AcDbDictionary
3
ACAD_GROUP
350
D
3
ACAD_MLINESTYLE
350
17
0
DICTIONARY
5
D
100
AcDbDictionary
0
DICTIONARY
5
1A
330
C
100
AcDbDictionary
0
DICTIONARY
5
17
100
AcDbDictionary
0
ENDSEC
0
EOF
