0
SECTION
2
HEADER
9
$INSUNITS
70
4
9
$ACADVER
1
AC1014
9
$HANDSEED
5
FFFF
0
ENDSEC
0
SECTION
2
TABLES
0
TABLE
2
VPORT
5
8
100
AcDbSymbolTable
0
ENDTAB
0
TABLE
2
LTYPE
5
5
100
AcDbSymbolTable
0
LTYPE
5
14
100
AcDbSymbolTableRecord
100
AcDbLinetypeTableRecord
2
BYBLOCK
70
0
0
LTYPE
5
15
100
AcDbSymbolTableRecord
100
AcDbLinetypeTableRecord
2
BYLAYER
70
0
0
ENDTAB
0
TABLE
2
LAYER
5
2
100
AcDbSymbolTable
70
2
0
LAYER
5
50
100
AcDbSymbolTableRecord
100
AcDbLayerTableRecord
2
0
70
0
6
CONTINUOUS
0
ENDTAB
0
TABLE
2
STYLE
5
3
100
AcDbSymbolTable
70
1
0
STYLE
5
11
100
AcDbSymbolTableRecord
100
AcDbTextStyleTableRecord
2
STANDARD
70
0
0
ENDTAB
0
TABLE
2
VIEW
5
6
100
AcDbSymbolTable
70
0
0
ENDTAB
0
TABLE
2
UCS
5
7
100
AcDbSymbolTable
70
0
0
ENDTAB
0
TABLE
2
APPID
5
9
100
AcDbSymbolTable
70
2
0
APPID
5
12
100
AcDbSymbolTableRecord
100
AcDbRegAppTableRecord
2
ACAD
70
0
0
ENDTAB
0
TABLE
2
DIMSTYLE
5
A
100
AcDbSymbolTable
70
1
0
ENDTAB
0
TABLE
2
BLOCK_RECORD
5
1
100
AcDbSymbolTable
70
1
0
BLOCK_RECORD
5
1F
100
AcDbSymbolTableRecord
100
AcDbBlockTableRecord
2
*MODEL_SPACE
0
BLOCK_RECORD
5
1B
100
AcDbSymbolTableRecord
100
AcDbBlockTableRecord
2
*PAPER_SPACE
0
ENDTAB
0
ENDSEC
0
SECTION
2
BLOCKS
0
BLOCK
5
20
100
AcDbEntity
100
AcDbBlockBegin
2
*MODEL_SPACE
0
ENDBLK
5
21
100
AcDbEntity
100
AcDbBlockEnd
0
BLOCK
5
1C
100
AcDbEntity
100
AcDbBlockBegin
2
*PAPER_SPACE
0
ENDBLK
5
1D
100
AcDbEntity
100
AcDbBlockEnd
0
ENDSEC
0
SECTION
2
ENTITIES
0
LWPOLYLINE
5
100
100
AcDbEntity
8
0
100
AcDbPolyline
90
4
70
1
43
0.0
10
-1004.1249999999982
20
629.99999999998226
10
-1004.1249999999982
20
850
10
-1029.1249999999982
20
850
10
-1029.1249999999982
20
629.99999999998226
0
LWPOLYLINE
5
101
100
AcDbEntity
8
0
100
AcDbPolyline
90
4
70
1
43
0.0
10
-726.37499999999818
20
629.99999999998226
10
-726.37499999999818
20
850
10
-751.37499999999818
20
850
10
-751.37499999999818
20
629.99999999998226
0
LWPOLYLINE
5
102
100
AcDbEntity
8
0
100
AcDbPolyline
90
4
70
1
43
0.0
10
-448.62499999999818
20
629.99999999998226
10
-448.62499999999818
20
850
10
-473.62499999999818
20
850
10
-473.62499999999818
20
629.99999999998226
0
LWPOLYLINE
5
103
100
AcDbEntity
8
0
100
AcDbPolyline
90
4
70
1
43
0.0
10
-170.87499999999821
20
629.99999999998226
10
-170.87499999999821
20
850
10
-195.87499999999821
20
850
10
-195.87499999999821
20
629.99999999998226
0
LWPOLYLINE
5
104
100
AcDbEntity
8
0
100
AcDbPolyline
90
4
70
1
43
0.0
10
-101.4374999999982
20
629.99999999998226
10
-101.4374999999982
20
850
10
-126.4374999999982
20
850
10
-126.4374999999982
20
629.99999999998226
0
LWPOLYLINE
5
105
100
AcDbEntity
8
0
100
AcDbPolyline
90
4
70
1
43
0.0
10
-379.18749999999818
20
629.99999999998226
10
-379.18749999999818
20
850
10
-404.18749999999818
20
850
10
-404.18749999999818
20
629.99999999998226
0
LWPOLYLINE
5
106
100
AcDbEntity
8
0
100
AcDbPolyline
90
4
70
1
43
0.0
10
-656.93749999999818
20
629.99999999998226
10
-656.93749999999818
20
850
10
-681.93749999999818
20
850
10
-681.93749999999818
20
629.99999999998226
0
LWPOLYLINE
5
107
100
AcDbEntity
8
0
100
AcDbPolyline
90
4
70
1
43
0.0
10
-934.68749999999829
20
629.99999999998226
10
-934.68749999999829
20
850
10
-959.68749999999829
20
850
10
-959.68749999999829
20
629.99999999998226
0
LWPOLYLINE
5
108
100
AcDbEntity
8
0
100
AcDbPolyline
90
4
70
1
43
0.0
10
-1073.5624999999984
20
629.99999999998226
10
-1073.5624999999984
20
850
10
-1098.5624999999984
20
850
10
-1098.5624999999984
20
629.99999999998226
0
LWPOLYLINE
5
109
100
AcDbEntity
8
0
100
AcDbPolyline
90
4
70
1
43
0.0
10
-795.81249999999829
20
629.99999999998226
10
-795.81249999999829
20
850
10
-820.81249999999829
20
850
10
-820.81249999999829
20
629.99999999998226
0
LWPOLYLINE
5
110
100
AcDbEntity
8
0
100
AcDbPolyline
90
4
70
1
43
0.0
10
-518.06249999999818
20
629.99999999998226
10
-518.06249999999818
20
850
10
-543.06249999999818
20
850
10
-543.06249999999818
20
629.99999999998226
0
LWPOLYLINE
5
111
100
AcDbEntity
8
0
100
AcDbPolyline
90
4
70
1
43
0.0
10
-240.31249999999818
20
629.99999999998226
10
-240.31249999999818
20
850
10
-265.31249999999818
20
850
10
-265.31249999999818
20
629.99999999998226
0
LWPOLYLINE
5
112
100
AcDbEntity
8
0
100
AcDbPolyline
90
4
70
1
43
0.0
10
-56.999999999998181
20
629.99999999998226
10
-31.999999999998181
20
629.99999999998226
10
-31.999999999998181
20
850
10
-56.999999999998181
20
850
0
LWPOLYLINE
5
113
100
AcDbEntity
8
0
100
AcDbPolyline
90
4
70
1
43
0.0
10
-309.74999999999818
20
629.99999999998226
10
-309.74999999999818
20
850
10
-334.74999999999824
20
850
10
-334.74999999999824
20
629.99999999998226
0
LWPOLYLINE
5
114
100
AcDbEntity
8
0
100
AcDbPolyline
90
4
70
1
43
0.0
10
-587.49999999999818
20
629.99999999998226
10
-587.49999999999818
20
850
10
-612.49999999999818
20
850
10
-612.49999999999818
20
629.99999999998226
0
LWPOLYLINE
5
115
100
AcDbEntity
8
0
100
AcDbPolyline
90
4
70
1
43
0.0
10
-865.24999999999818
20
629.99999999998226
10
-865.24999999999818
20
850
10
-890.24999999999818
20
850
10
-890.24999999999818
20
629.99999999998226
0
LWPOLYLINE
5
116
100
AcDbEntity
8
0
100
AcDbPolyline
90
4
70
1
43
0.0
10
-1142.9999999999982
20
629.99999999998226
10
-1142.9999999999982
20
850
10
-1167.9999999999982
20
850
10
-1167.9999999999982
20
629.99999999998226
0
LWPOLYLINE
5
117
100
AcDbEntity
8
0
100
AcDbPolyline
90
8
70
1
43
0.0
10
-14.999999999991687
20
22.499999999998153
10
-9.7499999999999964
20
22.500000000001563
42
0.99999999999999989
10
-5.2499999999917257
20
22.499999999994742
10
8.2067685980291571e-12
20
22.499999999998153
10
7.6205708410270745e-12
20
102.49999999999633
10
-5.249999999995385
20
102.49999999999088
42
0.99999999999999989
10
-9.7499999999953424
20
102.49999999999361
10
-14.999999999992273
20
102.49999999999633
0
LWPOLYLINE
5
118
100
AcDbEntity
8
0
100
AcDbPolyline
90
8
70
1
43
0.0
10
-14.999999999991687
20
172.49999999999815
10
-9.7499999999999964
20
172.50000000000156
42
0.99999999999999989
10
-5.2499999999917257
20
172.49999999999474
10
8.2067685980291571e-12
20
172.49999999999815
10
7.6205708410270745e-12
20
252.49999999999633
10
-5.249999999995385
20
252.49999999999088
42
0.99999999999999989
10
-9.7499999999892673
20
252.50000000000173
10
-14.999999999992273
20
252.49999999999633
0
LWPOLYLINE
5
119
100
AcDbEntity
8
0
100
AcDbPolyline
90
8
70
1
43
0.0
10
-1184.999999999982
20
252.49999999999631
10
-1190.2499999999791
20
252.49999999999631
42
0.99999999999999989
10
-1194.7499999999789
20
252.49999999999091
10
-1199.999999999982
20
252.49999999999631
10
-1199.9999999999827
20
172.49999999999815
10
-1194.7499999999743
20
172.49999999999815
42
0.99999999999999989
10
-1190.2499999999745
20
172.49999999999986
10
-1184.9999999999827
20
172.49999999999815
0
LWPOLYLINE
5
120
100
AcDbEntity
8
0
100
AcDbPolyline
90
8
70
1
43
0.0
10
-1184.999999999982
20
102.49999999999631
10
-1190.2499999999791
20
102.49999999999361
42
0.99999999999999989
10
-1194.7499999999791
20
102.49999999999091
10
-1199.999999999982
20
102.49999999999631
10
-1199.9999999999827
20
22.499999999998153
10
-1194.7499999999743
20
22.499999999998153
42
0.99999999999999989
10
-1190.2499999999745
20
22.499999999999858
10
-1184.9999999999827
20
22.499999999998153
0
LWPOLYLINE
5
121
100
AcDbEntity
8
0
100
AcDbPolyline
90
14
70
1
43
0.0
10
-26.999999999997485
20
899.99999999998295
42
-0.41421356237309059
10
23.000000000001819
20
849.99999999998295
10
23
20
4.2632564145606011e-13
10
-42.566243270259335
20
4.1744385725905886e-13
42
-0.26794919243112247
10
-64.216878364870311
20
12.500000000000426
10
-158.0362971081843
20
175.00000000000014
42
0.26794919243112275
10
-201.33756729740625
20
200.00000000000014
10
-998.66243270259451
20
200.00000000000014
42
0.26794919243111798
10
-1041.963702891816
20
175.00000000000097
10
-1135.7831216351351
20
12.499999999998712
42
-0.26794919243112714
10
-1157.4337567297466
20
-9.4945015908419507e-13
10
-1223.0000000000059
20
4.2632564145606011e-13
10
-1222.9999999999777
20
850.00000000000114
42
-0.41421356237308926
10
-1172.999999999977
20
899.99999999999955
0
CIRCLE
5
122
100
AcDbEntity
8
0
100
AcDbCircle
10
-1192.4999999999716
20
54.499999999998181
30
0
40
2.2499999999999432
210
0
220
0
230
1
0
CIRCLE
5
123
100
AcDbEntity
8
0
100
AcDbCircle
10
-1192.4999999999714
20
70.49999999999784
30
0
40
2.2499999999999432
210
0
220
0
230
1
0
LWPOLYLINE
5
124
100
AcDbEntity
8
0
100
AcDbPolyline
90
8
70
1
43
0.0
10
-1190.2499999999791
20
102.49999999999631
10
-1184.999999999982
20
102.49999999999631
10
-1184.9999999999827
20
22.499999999998153
10
-1190.2499999999745
20
22.500000000001563
42
0.99999999999999989
10
-1194.7499999999827
20
22.499999999998153
10
-1199.9999999999827
20
22.499999999998153
10
-1199.999999999982
20
102.49999999999631
10
-1194.7499999999789
20
102.49999999999091
42
0.99999999999999989
0
CIRCLE
5
125
100
AcDbEntity
8
0
100
AcDbCircle
10
-1192.4999999999714
20
220.49999999999784
30
0
40
2.2499999999999432
210
0
220
0
230
1
0
CIRCLE
5
126
100
AcDbEntity
8
0
100
AcDbCircle
10
-1192.4999999999823
20
204.49999999999747
30
0
40
2.2499999999999432
210
0
220
0
230
1
0
LWPOLYLINE
5
127
100
AcDbEntity
8
0
100
AcDbPolyline
90
8
70
1
43
0.0
10
-1190.2499999999791
20
252.49999999999631
10
-1184.999999999982
20
252.49999999999631
10
-1184.9999999999827
20
172.49999999999815
10
-1190.2499999999745
20
172.49999999999986
42
0.99999999999999989
10
-1194.7499999999827
20
172.49999999999815
10
-1199.9999999999827
20
172.49999999999815
10
-1199.999999999982
20
252.49999999999631
10
-1194.7499999999852
20
252.49999999999091
42
0.99999999999999989
0
CIRCLE
5
128
100
AcDbEntity
8
0
100
AcDbCircle
10
-7.4999999999920952
20
220.49999999999713
30
0
40
2.2499999999999987
210
0
220
0
230
1
0
CIRCLE
5
129
100
AcDbEntity
8
0
100
AcDbCircle
10
-7.5000000000027889
20
204.49999999999824
30
0
40
2.2499999999999849
210
0
220
0
230
1
0
LWPOLYLINE
5
130
100
AcDbEntity
8
0
100
AcDbPolyline
90
8
70
1
43
0.0
10
-9.7499999999999964
20
172.50000000000156
10
-14.999999999991687
20
172.49999999999815
10
-14.999999999992273
20
252.49999999999633
10
-9.7499999999892673
20
252.49999999999633
42
0.99999999999999989
10
-5.249999999995385
20
252.49999999999088
10
7.6205708410270745e-12
20
252.49999999999633
10
8.2067685980291571e-12
20
172.49999999999815
10
-5.2499999999917257
20
172.49999999999474
42
0.99999999999999989
0
CIRCLE
5
131
100
AcDbEntity
8
0
100
AcDbCircle
10
-7.4999999999920952
20
70.499999999997129
30
0
40
2.2499999999999964
210
0
220
0
230
1
0
CIRCLE
5
132
100
AcDbEntity
8
0
100
AcDbCircle
10
-7.4999999999919886
20
54.49999999999747
30
0
40
2.2499999999999964
210
0
220
0
230
1
0
LWPOLYLINE
5
133
100
AcDbEntity
8
0
100
AcDbPolyline
90
8
70
1
43
0.0
10
-9.7499999999999964
20
22.500000000001563
10
-14.999999999991687
20
22.499999999998153
10
-14.999999999992273
20
102.49999999999633
10
-9.7499999999953424
20
102.49999999999361
42
0.99999999999999989
10
-5.249999999995385
20
102.49999999999361
10
7.6205708410270745e-12
20
102.49999999999633
10
8.2067685980291571e-12
20
22.499999999998153
10
-5.2499999999917257
20
22.499999999994742
42
0.99999999999999989
0
ENDSEC
0
SECTION
2
OBJECTS
0
DICTIONARY
5
C
100
AcDbDictionary
3
ACAD_GROUP
350
D
3
ACAD_MLINESTYLE
350
17
0
DICTIONARY
5
D
100
AcDbDictionary
0
DICTIONARY
5
1A
330
C
100
AcDbDictionary
0
DICTIONARY
5
17
100
AcDbDictionary
0
ENDSEC
0
EOF
